<?xml version="1.0" encoding="utf-8"?>

<!DOCTYPE svg PUBLIC "-//W3C//DTD SVG 1.1//EN" "http://www.w3.org/Graphics/SVG/1.1/DTD/svg11.dtd">
<svg version="1.1" id="Layer_1" xmlns="http://www.w3.org/2000/svg" xmlns:xlink="http://www.w3.org/1999/xlink" x="0px" y="0px"
	 viewBox="0 0 2601.989 560.887" enable-background="new 0 0 2601.989 560.887" xml:space="preserve">
<path d="M1300.995,508.308c-61.389-17.717-126.49-43.666-193.54-71.797c-3.625,4.829-4.8,4.796-11.672,10.808
	c-112.005,98.429-302.238,91.386-396.436,41.287c-97.029-51.629-83.791-138.557-50.149-180.277
	c16.225-20.143,38.92-33.509,63.55-41.719c-136.17-47.219-269.357-76.888-411.568-53.176
	C202.632,229.847,84.931,275.731,42.222,358.91C-17.44,475.15,146.62,557.376,239.575,523.407
	c44.356-16.229,65.11-45.082,109.593-82.14c24.894-21.457,46.671-21.234,48.852-19.023c0.989,0,1.297,0.172,1.297-0.864
	c9.289,5.887,12.105,7.615,12.105,15.13c0,55.403-214.236,154.097-340.235,66.577C-98.358,361.312,185.938,133.962,559.923,214.948
	c52.601,11.383,108.154,27.452,166.66,48.204c39.064-9.374,80.523-4.92,119.32,4.323c28.587-37.692,89.199-54.04,136.613-54.04
	c113.638,0,175.089,68.342,175.089,121.483c0,24.493-8.647,49.134-25.938,73.926c51.674,32.632,109.424,63.256,169.329,83.981
	c59.905-20.724,117.655-51.348,169.329-83.981c-17.292-24.792-25.938-49.433-25.938-73.926c0-53.14,61.45-121.483,175.089-121.483
	c47.414,0,108.026,16.348,136.613,54.04c38.796-9.242,80.255-13.697,119.32-4.323c58.505-20.752,114.059-36.821,166.66-48.204
	c373.985-80.986,658.282,146.364,488.736,288.141c-125.999,87.52-340.235-11.174-340.235-66.577c0-7.515,2.816-9.243,12.105-15.13
	c0,1.036,0.309,0.864,1.297,0.864c2.181-2.211,23.958-2.434,48.852,19.023c44.483,37.058,65.237,65.91,109.593,82.14
	c92.955,33.97,257.015-48.257,197.353-164.497c-42.709-83.179-160.41-129.062-258.958-145.476
	c-142.211-23.712-275.399,5.957-411.568,53.176c24.63,8.209,47.325,21.576,63.55,41.719c33.641,41.72,46.879,128.647-50.149,180.277
	c-94.198,50.1-284.431,57.142-396.436-41.287c-6.872-6.012-8.047-5.979-11.672-10.808
	C1427.485,464.642,1362.384,490.591,1300.995,508.308z M1300.995,461.432c-134.543-92.432-147.913-291.59,0-438.4
	C1448.907,169.841,1435.538,369,1300.995,461.432z M1300.995,128.642c-71.402,110.454-94.705,236.668,0,313.03
	C1395.699,365.31,1372.397,239.096,1300.995,128.642z M1126.044,415.327c-2.914,4.372-6.026,8.18-12.104,15.132
	c65.064,26.201,94.076,36.373,120.183,44.961C1203.123,462.674,1143.259,426.355,1126.044,415.327z M1367.865,475.42
	c26.108-8.588,55.119-18.76,120.183-44.961c-6.078-6.952-9.19-10.76-12.104-15.132
	C1458.731,426.355,1398.866,462.674,1367.865,475.42z M853.684,270.069c122.483,32.972,253.213,126.98,270.631,134.018
	c14.433-20.53,24.211-42.56,24.211-67.441c0-69.907-100.325-135.393-214.646-110.675
	C904.955,232.226,874.445,246.721,853.684,270.069z M1668.11,225.972c-114.321-24.719-214.646,40.768-214.646,110.675
	c0,24.881,9.778,46.911,24.211,67.441c17.418-7.038,148.149-101.047,270.631-134.018
	C1727.545,246.721,1697.035,232.226,1668.11,225.972z M848.929,276.553c-5.927,9.163-10.196,19.704-10.808,30.695
	c127.697,54.164,154.371,72.439,268.036,119.753c7.225-7.225,10.181-10.529,13.403-15.132
	C1041.873,359.3,939.161,300.851,848.929,276.553z M1482.429,411.868c3.221,4.604,6.177,7.907,13.403,15.132
	c113.665-47.314,140.339-65.589,268.036-119.753c-0.612-10.99-4.881-21.532-10.808-30.695
	C1662.828,300.851,1560.116,359.3,1482.429,411.868z M829.043,313.301c-34.002-14.744-68.914-28.641-104.189-41.936
	c-58.368,15.92-81.276,51.725-81.276,76.089c0,59.59,95.568,105.007,152.175,122.994c132.857,42.152,260.94,18.831,303.489-37.396
	c-105.086-42.607-131.089-60.297-261.121-116.726c0.98,16.608,5.231,30.544,17.724,41.719c15.25,13.595,39.872,7.906,64.848,22.481
	c10.118,5.903,9.385,14.954,3.675,19.455C906.129,414.396,829.043,378.482,829.043,313.301z M1677.622,399.981
	c-5.711-4.5-6.443-13.552,3.675-19.455c24.976-14.576,49.598-8.886,64.848-22.481c12.493-11.175,16.744-25.11,17.724-41.719
	c-130.031,56.429-156.034,74.119-261.121,116.726c42.549,56.227,170.632,79.548,303.489,37.396
	c56.607-17.987,152.175-63.404,152.175-122.994c0-24.364-22.908-60.169-81.276-76.089c-35.275,13.295-70.187,27.192-104.189,41.936
	C1772.947,378.482,1695.861,414.396,1677.622,399.981z M840.283,275.255c-35.951-10.154-70.921-11.74-99.867-6.916
	c30.147,11.587,41.237,16.387,89.49,35.883C831.352,293.556,834.81,283.902,840.283,275.255z M1772.083,304.222
	c48.253-19.496,59.344-24.296,89.49-35.883c-28.946-4.824-63.915-3.238-99.866,6.916
	C1767.179,283.902,1770.638,293.556,1772.083,304.222z"/>
</svg>
